<svg width="64" height="64" viewBox="0 0 64 64" fill="none" xmlns="http://www.w3.org/2000/svg">
<path d="M1.33333 4C1.33333 4.66666 2.53333 5.33333 4 5.33333C6.93333 5.33333 6.8 4.93333 10.6667 25.3333C14 42.8 14 42.6667 10.2667 42.6667C4.8 42.6667 1.33333 46.2667 1.33333 52C1.33333 60 9.2 64.1333 15.4667 59.3333C19.3333 56.4 46.9333 56.5333 51.3333 59.4667C57.6 63.6 64.8 58.6667 62.9333 51.6C62.5333 50.2667 60.6667 48.5333 58.8 47.7333C56.9333 46.9333 53.7333 45.6 51.7333 44.5333C49.8667 43.4667 47.3333 42.6667 46.1333 42.6667C43.3333 42.6667 43.3333 37.8667 46.1333 36.8C47.8667 36.1333 48.1333 34.8 47.6 31.2C46.4 23.6 44.8 22.6667 34 22.6667C23.2 22.6667 21.6 23.6 20.4 31.2C19.8667 34.8 20.1333 36.1333 21.8667 36.8C25.0667 38 24.4 41.7333 20.6667 43.4667C16.8 45.3333 17.3333 46.8 12.5333 21.6L9.06667 2.66666H5.2C3.06667 2.66666 1.33333 3.2 1.33333 4ZM43.7333 30.2667L44.1333 34.6667H34.1333H24V30.9333C24 28.8 24.4 26.6667 24.9333 26.1333C25.4667 25.6 29.8667 25.3333 34.6667 25.6L43.3333 26L43.7333 30.2667ZM40 40C40 42.2667 39.0667 42.6667 34 42.6667C28.9333 42.6667 28 42.2667 28 40C28 37.7333 28.9333 37.3333 34 37.3333C39.0667 37.3333 40 37.7333 40 40ZM14.4 46.9333C16.4 48.9333 16.4 55.0667 14.4 57.0667C12.4 59.0667 7.6 59.0667 5.6 57.0667C3.6 55.0667 3.6 48.9333 5.6 46.9333C6.53333 46 8.4 45.3333 10 45.3333C11.6 45.3333 13.4667 46 14.4 46.9333ZM49.8667 46.5333C50.4 47.2 50.1333 49.3333 49.3333 51.2C48.1333 54.6667 48 54.6667 33.3333 54.6667H18.6667V50.8C18.6667 48.6667 19.4667 46.5333 20.4 46.2667C23.3333 45.0667 49.2 45.3333 49.8667 46.5333ZM59.3333 54C59.3333 57.3333 58.8 58 56 58C53.8667 58 52.5333 57.2 52.2667 55.6C51.4667 51.6 53.0667 49.0667 56.2667 49.6C58.6667 49.8667 59.3333 50.8 59.3333 54Z" fill="black"/>
</svg>
