<svg width="64" height="64" viewBox="0 0 64 64" fill="none" xmlns="http://www.w3.org/2000/svg">
<path d="M29.7333 2.93333C30 3.86666 31.0667 4.66666 32 4.66666C32.9333 4.66666 34 3.86666 34.4 2.93333C34.6667 2 33.7333 1.33333 32 1.33333C30.2667 1.33333 29.3333 2 29.7333 2.93333Z" fill="black"/>
<path d="M6.66667 7.33333C6.66667 8.39999 7.60001 9.33333 8.66667 9.33333C9.73334 9.33333 10.6667 8.39999 10.6667 7.33333C10.6667 6.26666 9.73334 5.33333 8.66667 5.33333C7.60001 5.33333 6.66667 6.26666 6.66667 7.33333Z" fill="black"/>
<path d="M53.3333 7.33333C53.3333 8.39999 54.2667 9.33333 55.3333 9.33333C56.4 9.33333 57.3333 8.39999 57.3333 7.33333C57.3333 6.26666 56.4 5.33333 55.3333 5.33333C54.2667 5.33333 53.3333 6.26666 53.3333 7.33333Z" fill="black"/>
<path d="M17.3333 15.3333C17.3333 16.4 18.2667 17.3333 19.3333 17.3333C20.4 17.3333 21.3333 16.4 21.3333 15.3333C21.3333 14.2667 20.4 13.3333 19.3333 13.3333C18.2667 13.3333 17.3333 14.2667 17.3333 15.3333Z" fill="black"/>
<path d="M30.6667 15.7333C30.6667 17.0667 29.0667 18.6667 26.8 19.6C22.1333 21.3333 19.8667 27.7333 21.6 34C22.9333 38.9333 29.8667 48.6667 32 48.6667C34.1333 48.6667 41.0667 38.9333 42.4 34C44.1333 27.7333 41.8667 21.3333 37.2 19.6C34.9333 18.6667 33.3333 17.0667 33.3333 15.7333C33.3333 14.4 32.8 13.3333 32 13.3333C31.3333 13.3333 30.6667 14.4 30.6667 15.7333ZM30.6667 32.9333L30.5333 44.6667L27.3333 39.3333C22.1333 30.9333 23.3333 21.6 29.7333 21.3333C30.2667 21.3333 30.6667 26.5333 30.6667 32.9333ZM37.4667 22.6667C41.2 24.6667 40.8 32.6667 36.6667 39.3333L33.4667 44.6667L33.3333 32.9333C33.3333 26.5333 33.7333 21.3333 34.1333 21.3333C34.5333 21.3333 36 22 37.4667 22.6667Z" fill="black"/>
<path d="M42.6667 15.3333C42.6667 16.4 43.6 17.3333 44.6667 17.3333C45.7333 17.3333 46.6667 16.4 46.6667 15.3333C46.6667 14.2667 45.7333 13.3333 44.6667 13.3333C43.6 13.3333 42.6667 14.2667 42.6667 15.3333Z" fill="black"/>
<path d="M1.33334 27.3333C1.33334 28.4 2.26667 29.3333 3.33334 29.3333C4.4 29.3333 5.33334 28.4 5.33334 27.3333C5.33334 26.2667 4.4 25.3333 3.33334 25.3333C2.26667 25.3333 1.33334 26.2667 1.33334 27.3333Z" fill="black"/>
<path d="M10.6667 27.3333C10.6667 28.4 11.6 29.3333 12.6667 29.3333C13.7333 29.3333 14.6667 28.4 14.6667 27.3333C14.6667 26.2667 13.7333 25.3333 12.6667 25.3333C11.6 25.3333 10.6667 26.2667 10.6667 27.3333Z" fill="black"/>
<path d="M49.3333 27.3333C49.3333 28.4 50.2667 29.3333 51.3333 29.3333C52.4 29.3333 53.3333 28.4 53.3333 27.3333C53.3333 26.2667 52.4 25.3333 51.3333 25.3333C50.2667 25.3333 49.3333 26.2667 49.3333 27.3333Z" fill="black"/>
<path d="M58.6667 27.3333C58.6667 28.4 59.6 29.3333 60.6667 29.3333C61.7333 29.3333 62.6667 28.4 62.6667 27.3333C62.6667 26.2667 61.7333 25.3333 60.6667 25.3333C59.6 25.3333 58.6667 26.2667 58.6667 27.3333Z" fill="black"/>
<path d="M24.6667 52.2667C24.2667 53.2 23.8667 56.1333 23.7333 58.6667L23.3333 63.3333H32H40.6667L40.2667 58C40 55.0667 39.2 52 38.4 51.3333C37.4667 50.4 37.2 51.6 37.6 54.9333L38.1333 60H32H25.8667L26.4 55.3333C26.9333 50.8 25.8667 48.9333 24.6667 52.2667Z" fill="black"/>
</svg>
