<svg width="64" height="64" viewBox="0 0 64 64" fill="none" xmlns="http://www.w3.org/2000/svg">
<path d="M6.66666 7.33333C1.06666 13.0667 -0.133336 17.6 5.33333 12.6667C8 10.2667 8.26666 10.2667 16 18C23.4667 25.3333 23.7333 25.8667 21.8667 28.8C19.6 32 20.5333 35.3333 24.6667 38.6667C28.1333 41.6 28.6667 38.9333 25.3333 35.3333L22.1333 31.8667L27.0667 26.9333L32.1333 22L35.8667 26.1333C38 28.4 40 31.2 40.2667 32.1333C40.6667 33.2 41.4667 33.6 42 33.0667C43.4667 31.7333 39.7333 25.2 35.7333 22.2667C32.4 19.7333 31.8667 19.7333 28.9333 21.7333C25.8667 23.7333 25.6 23.6 18 16C10.5333 8.53333 10.2667 8 12.4 5.6C13.6 4.26667 14.6667 2.66667 14.6667 2.26667C14.6667 0.133334 12.1333 1.73333 6.66666 7.33333Z" fill="black"/>
<path d="M38 38C35.8667 39.2 32.1333 41.8667 30 44L25.8667 48L20.4 45.2C13.7333 41.8667 9.2 42.8 4.53333 48.2667C1.86667 51.4667 1.33333 53.6 1.6 57.8667L2 63.3333L31.2 63.7333C49.6 63.8667 60.9333 63.6 62 62.6667C64 60.9333 62.4 49.0667 59.3333 44.5333C54.6667 37.3333 44.8 34.4 38 38ZM53.7333 42.4C57.4667 45.7333 60 51.3333 60 56V60H32H4V56.2667C4 49.3333 11.3333 44.1333 17.8667 46.6667C22 48.1333 23.6 51.3333 21.4667 53.8667C20.6667 54.8 20.4 56 20.8 56.4C21.3333 56.8 24.6667 53.8667 28.5333 49.7333C32.2667 45.6 37.0667 41.4667 39.3333 40.5333C44.1333 38.4 50.1333 39.0667 53.7333 42.4Z" fill="black"/>
</svg>
