<svg xmlns="http://www.w3.org/2000/svg" viewBox="0 0 40 40">
  <g fill="none" stroke="currentColor" stroke-width="2.2" stroke-linecap="round" stroke-linejoin="round">
    <path d="M10,21 C8,14 7.5,7 10,3 C11.5,0.5 15,1.5 14.5,5 C14,11 13,17 11,21Z"/>
    <path d="M22,21 C24,14 24.5,7 22,3 C20.5,0.5 17,1.5 17.5,5 C18,11 19,17 20,21Z"/>
    <circle cx="15" cy="26" r="10.5"/>
    <ellipse cx="15" cy="35.5" rx="5.5" ry="3.8"/>
  </g>
  <circle fill="currentColor" cx="12" cy="24.5" r="1.4"/>
  <circle fill="currentColor" cx="18" cy="24.5" r="1.4"/>
  <path fill="var(--varky-spark, currentColor)" d="M31,10 L32.7,15.8 L38.5,17.5 L32.7,19.2 L31,25 L29.3,19.2 L23.5,17.5 L29.3,15.8Z"/>
</svg>
